<?xml version="1.0" encoding="UTF-8"?>
<svg width="16px" height="16px" viewBox="0 0 16 16" version="1.1" xmlns="http://www.w3.org/2000/svg" xmlns:xlink="http://www.w3.org/1999/xlink">
    <!-- Generator: Sketch 49.3 (51167) - http://www.bohemiancoding.com/sketch -->
    <title>clock-line-13</title>
    <desc>Created with Sketch.</desc>
    <defs></defs>
    <g id="Visual-Challenge" stroke="none" stroke-width="1" fill="none" fill-rule="evenodd">
        <g id="Busybus-mobile-prototype-visual-challenge" transform="translate(-18.000000, -196.000000)" fill="#4A4A4A" fill-rule="nonzero">
            <g id="&lt;li&gt;" transform="translate(-7.000000, 120.000000)">
                <g id="more-times-line-3" transform="translate(25.000000, 75.000000)">
                    <g id="clock-line-13" transform="translate(0.000000, 1.000000)">
                        <path d="M8,0 C3.58181818,0 0,3.58181818 0,8 C0,12.4181818 3.58181818,16 8,16 C12.4181818,16 16,12.4181818 16,8 C16,3.58181818 12.4181818,0 8,0 Z M8,15.4545455 C3.89090909,15.4545455 0.545454545,12.1090909 0.545454545,8 C0.545454545,3.89090909 3.89090909,0.545454545 8,0.545454545 C12.1090909,0.545454545 15.4545455,3.89090909 15.4545455,8 C15.4545455,12.1090909 12.1090909,15.4545455 8,15.4545455 Z" id="Shape"></path>
                        <path d="M11.1636364,10.6363636 L8.54545455,9.12727273 L8.54545455,4.27272727 C8.54545455,4.12727273 8.41818182,4 8.27272727,4 C8.12727273,4 8,4.12727273 8,4.27272727 L8,9.27272727 C8,9.27272727 8,9.27272727 8,9.27272727 C8,9.29090909 8,9.29090909 8,9.30909091 C8,9.30909091 8,9.32727273 8,9.32727273 C8,9.32727273 8,9.34545455 8,9.34545455 C8,9.34545455 8,9.36363636 8.01818182,9.36363636 C8.01818182,9.36363636 8.01818182,9.38181818 8.03636364,9.38181818 C8.03636364,9.38181818 8.03636364,9.4 8.05454545,9.4 C8.05454545,9.4 8.07272727,9.41818182 8.07272727,9.41818182 C8.07272727,9.41818182 8.09090909,9.43636364 8.09090909,9.43636364 C8.09090909,9.43636364 8.10909091,9.45454545 8.10909091,9.45454545 C8.10909091,9.45454545 8.12727273,9.47272727 8.12727273,9.47272727 C8.12727273,9.47272727 8.12727273,9.47272727 8.12727273,9.47272727 L10.8909091,11.0909091 C10.9272727,11.1090909 10.9818182,11.1272727 11.0181818,11.1272727 C11.1090909,11.1272727 11.2,11.0727273 11.2545455,10.9818182 C11.3454545,10.8727273 11.2909091,10.7090909 11.1636364,10.6363636 Z" id="Shape"></path>
                    </g>
                </g>
            </g>
        </g>
    </g>
</svg>